<svg width="20" height="11" viewBox="0 0 20 11" fill="none" xmlns="http://www.w3.org/2000/svg">
<path d="M18.7998 1L18.7998 1.01" stroke="currentColor" stroke-width="2" stroke-linecap="round"/>
<path d="M18.7998 5.40002L18.7998 5.41002" stroke="currentColor" stroke-width="2" stroke-linecap="round"/>
<path d="M18.7998 9.79999L18.7998 9.80999" stroke="currentColor" stroke-width="2" stroke-linecap="round"/>
<path d="M16.5999 7.59998L16.5999 7.60998" stroke="currentColor" stroke-width="2" stroke-linecap="round"/>
<path d="M16.5999 3.20001L16.5999 3.21001" stroke="currentColor" stroke-width="2" stroke-linecap="round"/>
<path d="M13.5999 1L13.5999 1.01" stroke="currentColor" stroke-width="2" stroke-linecap="round"/>
<path d="M13.5999 5.40002L13.5999 5.41002" stroke="currentColor" stroke-width="2" stroke-linecap="round"/>
<path d="M13.5999 9.79999L13.5999 9.80999" stroke="currentColor" stroke-width="2" stroke-linecap="round"/>
<path d="M11.3999 7.59998L11.3999 7.60998" stroke="currentColor" stroke-width="2" stroke-linecap="round"/>
<path d="M11.3999 3.20001L11.3999 3.21001" stroke="currentColor" stroke-width="2" stroke-linecap="round"/>
<path d="M8.3999 1L8.3999 1.01" stroke="currentColor" stroke-width="2" stroke-linecap="round"/>
<path d="M8.3999 5.40002L8.3999 5.41002" stroke="currentColor" stroke-width="2" stroke-linecap="round"/>
<path d="M8.3999 9.79999L8.3999 9.80999" stroke="currentColor" stroke-width="2" stroke-linecap="round"/>
<path d="M6.19995 7.59998L6.19995 7.60998" stroke="currentColor" stroke-width="2" stroke-linecap="round"/>
<path d="M6.19995 3.20001L6.19995 3.21001" stroke="currentColor" stroke-width="2" stroke-linecap="round"/>
<path d="M3.19995 1L3.19995 1.01" stroke="currentColor" stroke-width="2" stroke-linecap="round"/>
<path d="M3.19995 5.40002L3.19995 5.41002" stroke="currentColor" stroke-width="2" stroke-linecap="round"/>
<path d="M3.19995 9.79999L3.19995 9.80999" stroke="currentColor" stroke-width="2" stroke-linecap="round"/>
<path d="M1 7.59998L1 7.60998" stroke="currentColor" stroke-width="2" stroke-linecap="round"/>
<path d="M1 3.20001L1 3.21001" stroke="currentColor" stroke-width="2" stroke-linecap="round"/>
</svg>
